<svg xmlns:xlink="http://www.w3.org/1999/xlink" width="720pt" height="432pt" viewBox="0 0 720 432" xmlns="http://www.w3.org/2000/svg" version="1.1">
 <metadata>
  <rdf:RDF xmlns:dc="http://purl.org/dc/elements/1.1/" xmlns:cc="http://creativecommons.org/ns#" xmlns:rdf="http://www.w3.org/1999/02/22-rdf-syntax-ns#">
   <cc:Work>
    <dc:type rdf:resource="http://purl.org/dc/dcmitype/StillImage"/>
    <dc:date>2023-02-16T22:27:21.266619</dc:date>
    <dc:format>image/svg+xml</dc:format>
    <dc:creator>
     <cc:Agent>
      <dc:title>Matplotlib v3.6.2, https://matplotlib.org/</dc:title>
     </cc:Agent>
    </dc:creator>
   </cc:Work>
  </rdf:RDF>
 </metadata>
 <defs>
  <style type="text/css">*{stroke-linejoin: round; stroke-linecap: butt}</style>
 </defs>
 <g id="figure_1">
  <g id="patch_1">
   <path d="M 0 432 
L 720 432 
L 720 0 
L 0 0 
z
" style="fill: #ffffff"/>
  </g>
  <g id="axes_1">
   <g id="patch_2">
    <path d="M 57.17 390.04 
L 709.2 390.04 
L 709.2 10.8 
L 57.17 10.8 
z
" style="fill: #ffffff"/>
   </g>
   <g id="PolyCollection_1">
    <defs>
     <path id="m9ed50ad186" d="M 86.807727 -197.849828 
L 86.807727 -104.551086 
L 103.261861 -102.776487 
L 119.761075 -79.839055 
L 136.215209 -88.605969 
L 152.669343 -97.117563 
L 169.123478 -90.116337 
L 185.622691 -74.466422 
L 202.076826 -80.712291 
L 218.53096 -90.76262 
L 234.985094 -89.102016 
L 251.484308 -64.008099 
L 267.938442 -78.06024 
L 284.392576 -85.808163 
L 300.84671 -83.137803 
L 317.345924 -59.198182 
L 333.800058 -74.027756 
L 350.254192 -92.319282 
L 366.708326 -103.36476 
L 383.20754 -90.732668 
L 399.661674 -116.541197 
L 416.115808 -135.336211 
L 432.569942 -143.307155 
L 449.069156 -132.114065 
L 465.52329 -157.12364 
L 481.977424 -175.51967 
L 498.431558 -189.344826 
L 514.930772 -177.906392 
L 531.384906 -200.63491 
L 547.83904 -221.138244 
L 564.293174 -233.374442 
L 580.792388 -220.140689 
L 597.246522 -250.000976 
L 613.700657 -262.171868 
L 630.154791 -276.436211 
L 646.654005 -262.117101 
L 663.108139 -289.621267 
L 679.562273 -308.800174 
L 679.562273 -403.961818 
L 679.562273 -403.961818 
L 663.108139 -391.366096 
L 646.654005 -359.253224 
L 630.154791 -372.559513 
L 613.700657 -362.565028 
L 597.246522 -342.306776 
L 580.792388 -317.004525 
L 564.293174 -328.930675 
L 547.83904 -317.554365 
L 531.384906 -300.927258 
L 514.930772 -273.077908 
L 498.431558 -283.255589 
L 481.977424 -277.081684 
L 465.52329 -258.896615 
L 449.069156 -232.40659 
L 432.569942 -241.705781 
L 416.115808 -228.163298 
L 399.661674 -209.821348 
L 383.20754 -186.718995 
L 366.708326 -198.036384 
L 350.254192 -184.234534 
L 333.800058 -167.597616 
L 317.345924 -156.736585 
L 300.84671 -178.874622 
L 284.392576 -181.335694 
L 267.938442 -175.705769 
L 251.484308 -160.818263 
L 234.985094 -185.958187 
L 218.53096 -183.557723 
L 202.076826 -181.68373 
L 185.622691 -172.571212 
L 169.123478 -194.958707 
L 152.669343 -193.378484 
L 136.215209 -186.105428 
L 119.761075 -175.838441 
L 103.261861 -198.803495 
L 86.807727 -197.849828 
z
" style="stroke: #0072b2; stroke-opacity: 0.2"/>
    </defs>
    <g clip-path="url(#p27b0f120a7)">
     <use xlink:href="#m9ed50ad186" x="0" y="432" style="fill: #0072b2; fill-opacity: 0.2; stroke: #0072b2; stroke-opacity: 0.2"/>
    </g>
   </g>
   <g id="matplotlib.axis_1">
    <g id="xtick_1">
     <g id="line2d_1">
      <path d="M 119.806155 390.04 
L 119.806155 10.8 
" clip-path="url(#p27b0f120a7)" style="fill: none; stroke: #808080; stroke-opacity: 0.2; stroke-linecap: square"/>
     </g>
     <g id="line2d_2">
      <defs>
       <path id="ma0edade4d1" d="M 0 0 
L 0 3.5 
" style="stroke: #000000; stroke-width: 0.8"/>
      </defs>
      <g>
       <use xlink:href="#ma0edade4d1" x="119.806155" y="390.04" style="stroke: #000000; stroke-width: 0.8"/>
      </g>
     </g>
     <g id="text_1">
      <!-- 1993 -->
      <g transform="translate(107.081155 404.638438) scale(0.1 -0.1)">
       <defs>
        <path id="DejaVuSans-31" d="M 794 531 
L 1825 531 
L 1825 4091 
L 703 3866 
L 703 4441 
L 1819 4666 
L 2450 4666 
L 2450 531 
L 3481 531 
L 3481 0 
L 794 0 
L 794 531 
z
" transform="scale(0.015625)"/>
        <path id="DejaVuSans-39" d="M 703 97 
L 703 672 
Q 941 559 1184 500 
Q 1428 441 1663 441 
Q 2288 441 2617 861 
Q 2947 1281 2994 2138 
Q 2813 1869 2534 1725 
Q 2256 1581 1919 1581 
Q 1219 1581 811 2004 
Q 403 2428 403 3163 
Q 403 3881 828 4315 
Q 1253 4750 1959 4750 
Q 2769 4750 3195 4129 
Q 3622 3509 3622 2328 
Q 3622 1225 3098 567 
Q 2575 -91 1691 -91 
Q 1453 -91 1209 -44 
Q 966 3 703 97 
z
M 1959 2075 
Q 2384 2075 2632 2365 
Q 2881 2656 2881 3163 
Q 2881 3666 2632 3958 
Q 2384 4250 1959 4250 
Q 1534 4250 1286 3958 
Q 1038 3666 1038 3163 
Q 1038 2656 1286 2365 
Q 1534 2075 1959 2075 
z
" transform="scale(0.015625)"/>
        <path id="DejaVuSans-33" d="M 2597 2516 
Q 3050 2419 3304 2112 
Q 3559 1806 3559 1356 
Q 3559 666 3084 287 
Q 2609 -91 1734 -91 
Q 1441 -91 1130 -33 
Q 819 25 488 141 
L 488 750 
Q 750 597 1062 519 
Q 1375 441 1716 441 
Q 2309 441 2620 675 
Q 2931 909 2931 1356 
Q 2931 1769 2642 2001 
Q 2353 2234 1838 2234 
L 1294 2234 
L 1294 2753 
L 1863 2753 
Q 2328 2753 2575 2939 
Q 2822 3125 2822 3475 
Q 2822 3834 2567 4026 
Q 2313 4219 1838 4219 
Q 1578 4219 1281 4162 
Q 984 4106 628 3988 
L 628 4550 
Q 988 4650 1302 4700 
Q 1616 4750 1894 4750 
Q 2613 4750 3031 4423 
Q 3450 4097 3450 3541 
Q 3450 3153 3228 2886 
Q 3006 2619 2597 2516 
z
" transform="scale(0.015625)"/>
       </defs>
       <use xlink:href="#DejaVuSans-31"/>
       <use xlink:href="#DejaVuSans-39" x="63.623047"/>
       <use xlink:href="#DejaVuSans-39" x="127.246094"/>
       <use xlink:href="#DejaVuSans-33" x="190.869141"/>
      </g>
     </g>
    </g>
    <g id="xtick_2">
     <g id="line2d_3">
      <path d="M 185.667771 390.04 
L 185.667771 10.8 
" clip-path="url(#p27b0f120a7)" style="fill: none; stroke: #808080; stroke-opacity: 0.2; stroke-linecap: square"/>
     </g>
     <g id="line2d_4">
      <g>
       <use xlink:href="#ma0edade4d1" x="185.667771" y="390.04" style="stroke: #000000; stroke-width: 0.8"/>
      </g>
     </g>
     <g id="text_2">
      <!-- 1997 -->
      <g transform="translate(172.942771 404.638438) scale(0.1 -0.1)">
       <defs>
        <path id="DejaVuSans-37" d="M 525 4666 
L 3525 4666 
L 3525 4397 
L 1831 0 
L 1172 0 
L 2766 4134 
L 525 4134 
L 525 4666 
z
" transform="scale(0.015625)"/>
       </defs>
       <use xlink:href="#DejaVuSans-31"/>
       <use xlink:href="#DejaVuSans-39" x="63.623047"/>
       <use xlink:href="#DejaVuSans-39" x="127.246094"/>
       <use xlink:href="#DejaVuSans-37" x="190.869141"/>
      </g>
     </g>
    </g>
    <g id="xtick_3">
     <g id="line2d_5">
      <path d="M 251.529387 390.04 
L 251.529387 10.8 
" clip-path="url(#p27b0f120a7)" style="fill: none; stroke: #808080; stroke-opacity: 0.2; stroke-linecap: square"/>
     </g>
     <g id="line2d_6">
      <g>
       <use xlink:href="#ma0edade4d1" x="251.529387" y="390.04" style="stroke: #000000; stroke-width: 0.8"/>
      </g>
     </g>
     <g id="text_3">
      <!-- 2001 -->
      <g transform="translate(238.804387 404.638438) scale(0.1 -0.1)">
       <defs>
        <path id="DejaVuSans-32" d="M 1228 531 
L 3431 531 
L 3431 0 
L 469 0 
L 469 531 
Q 828 903 1448 1529 
Q 2069 2156 2228 2338 
Q 2531 2678 2651 2914 
Q 2772 3150 2772 3378 
Q 2772 3750 2511 3984 
Q 2250 4219 1831 4219 
Q 1534 4219 1204 4116 
Q 875 4013 500 3803 
L 500 4441 
Q 881 4594 1212 4672 
Q 1544 4750 1819 4750 
Q 2544 4750 2975 4387 
Q 3406 4025 3406 3419 
Q 3406 3131 3298 2873 
Q 3191 2616 2906 2266 
Q 2828 2175 2409 1742 
Q 1991 1309 1228 531 
z
" transform="scale(0.015625)"/>
        <path id="DejaVuSans-30" d="M 2034 4250 
Q 1547 4250 1301 3770 
Q 1056 3291 1056 2328 
Q 1056 1369 1301 889 
Q 1547 409 2034 409 
Q 2525 409 2770 889 
Q 3016 1369 3016 2328 
Q 3016 3291 2770 3770 
Q 2525 4250 2034 4250 
z
M 2034 4750 
Q 2819 4750 3233 4129 
Q 3647 3509 3647 2328 
Q 3647 1150 3233 529 
Q 2819 -91 2034 -91 
Q 1250 -91 836 529 
Q 422 1150 422 2328 
Q 422 3509 836 4129 
Q 1250 4750 2034 4750 
z
" transform="scale(0.015625)"/>
       </defs>
       <use xlink:href="#DejaVuSans-32"/>
       <use xlink:href="#DejaVuSans-30" x="63.623047"/>
       <use xlink:href="#DejaVuSans-30" x="127.246094"/>
       <use xlink:href="#DejaVuSans-31" x="190.869141"/>
      </g>
     </g>
    </g>
    <g id="xtick_4">
     <g id="line2d_7">
      <path d="M 317.391004 390.04 
L 317.391004 10.8 
" clip-path="url(#p27b0f120a7)" style="fill: none; stroke: #808080; stroke-opacity: 0.2; stroke-linecap: square"/>
     </g>
     <g id="line2d_8">
      <g>
       <use xlink:href="#ma0edade4d1" x="317.391004" y="390.04" style="stroke: #000000; stroke-width: 0.8"/>
      </g>
     </g>
     <g id="text_4">
      <!-- 2005 -->
      <g transform="translate(304.666004 404.638438) scale(0.1 -0.1)">
       <defs>
        <path id="DejaVuSans-35" d="M 691 4666 
L 3169 4666 
L 3169 4134 
L 1269 4134 
L 1269 2991 
Q 1406 3038 1543 3061 
Q 1681 3084 1819 3084 
Q 2600 3084 3056 2656 
Q 3513 2228 3513 1497 
Q 3513 744 3044 326 
Q 2575 -91 1722 -91 
Q 1428 -91 1123 -41 
Q 819 9 494 109 
L 494 744 
Q 775 591 1075 516 
Q 1375 441 1709 441 
Q 2250 441 2565 725 
Q 2881 1009 2881 1497 
Q 2881 1984 2565 2268 
Q 2250 2553 1709 2553 
Q 1456 2553 1204 2497 
Q 953 2441 691 2322 
L 691 4666 
z
" transform="scale(0.015625)"/>
       </defs>
       <use xlink:href="#DejaVuSans-32"/>
       <use xlink:href="#DejaVuSans-30" x="63.623047"/>
       <use xlink:href="#DejaVuSans-30" x="127.246094"/>
       <use xlink:href="#DejaVuSans-35" x="190.869141"/>
      </g>
     </g>
    </g>
    <g id="xtick_5">
     <g id="line2d_9">
      <path d="M 383.25262 390.04 
L 383.25262 10.8 
" clip-path="url(#p27b0f120a7)" style="fill: none; stroke: #808080; stroke-opacity: 0.2; stroke-linecap: square"/>
     </g>
     <g id="line2d_10">
      <g>
       <use xlink:href="#ma0edade4d1" x="383.25262" y="390.04" style="stroke: #000000; stroke-width: 0.8"/>
      </g>
     </g>
     <g id="text_5">
      <!-- 2009 -->
      <g transform="translate(370.52762 404.638438) scale(0.1 -0.1)">
       <use xlink:href="#DejaVuSans-32"/>
       <use xlink:href="#DejaVuSans-30" x="63.623047"/>
       <use xlink:href="#DejaVuSans-30" x="127.246094"/>
       <use xlink:href="#DejaVuSans-39" x="190.869141"/>
      </g>
     </g>
    </g>
    <g id="xtick_6">
     <g id="line2d_11">
      <path d="M 449.114236 390.04 
L 449.114236 10.8 
" clip-path="url(#p27b0f120a7)" style="fill: none; stroke: #808080; stroke-opacity: 0.2; stroke-linecap: square"/>
     </g>
     <g id="line2d_12">
      <g>
       <use xlink:href="#ma0edade4d1" x="449.114236" y="390.04" style="stroke: #000000; stroke-width: 0.8"/>
      </g>
     </g>
     <g id="text_6">
      <!-- 2013 -->
      <g transform="translate(436.389236 404.638438) scale(0.1 -0.1)">
       <use xlink:href="#DejaVuSans-32"/>
       <use xlink:href="#DejaVuSans-30" x="63.623047"/>
       <use xlink:href="#DejaVuSans-31" x="127.246094"/>
       <use xlink:href="#DejaVuSans-33" x="190.869141"/>
      </g>
     </g>
    </g>
    <g id="xtick_7">
     <g id="line2d_13">
      <path d="M 514.975852 390.04 
L 514.975852 10.8 
" clip-path="url(#p27b0f120a7)" style="fill: none; stroke: #808080; stroke-opacity: 0.2; stroke-linecap: square"/>
     </g>
     <g id="line2d_14">
      <g>
       <use xlink:href="#ma0edade4d1" x="514.975852" y="390.04" style="stroke: #000000; stroke-width: 0.8"/>
      </g>
     </g>
     <g id="text_7">
      <!-- 2017 -->
      <g transform="translate(502.250852 404.638438) scale(0.1 -0.1)">
       <use xlink:href="#DejaVuSans-32"/>
       <use xlink:href="#DejaVuSans-30" x="63.623047"/>
       <use xlink:href="#DejaVuSans-31" x="127.246094"/>
       <use xlink:href="#DejaVuSans-37" x="190.869141"/>
      </g>
     </g>
    </g>
    <g id="xtick_8">
     <g id="line2d_15">
      <path d="M 580.837468 390.04 
L 580.837468 10.8 
" clip-path="url(#p27b0f120a7)" style="fill: none; stroke: #808080; stroke-opacity: 0.2; stroke-linecap: square"/>
     </g>
     <g id="line2d_16">
      <g>
       <use xlink:href="#ma0edade4d1" x="580.837468" y="390.04" style="stroke: #000000; stroke-width: 0.8"/>
      </g>
     </g>
     <g id="text_8">
      <!-- 2021 -->
      <g transform="translate(568.112468 404.638438) scale(0.1 -0.1)">
       <use xlink:href="#DejaVuSans-32"/>
       <use xlink:href="#DejaVuSans-30" x="63.623047"/>
       <use xlink:href="#DejaVuSans-32" x="127.246094"/>
       <use xlink:href="#DejaVuSans-31" x="190.869141"/>
      </g>
     </g>
    </g>
    <g id="xtick_9">
     <g id="line2d_17">
      <path d="M 646.699084 390.04 
L 646.699084 10.8 
" clip-path="url(#p27b0f120a7)" style="fill: none; stroke: #808080; stroke-opacity: 0.2; stroke-linecap: square"/>
     </g>
     <g id="line2d_18">
      <g>
       <use xlink:href="#ma0edade4d1" x="646.699084" y="390.04" style="stroke: #000000; stroke-width: 0.8"/>
      </g>
     </g>
     <g id="text_9">
      <!-- 2025 -->
      <g transform="translate(633.974084 404.638438) scale(0.1 -0.1)">
       <use xlink:href="#DejaVuSans-32"/>
       <use xlink:href="#DejaVuSans-30" x="63.623047"/>
       <use xlink:href="#DejaVuSans-32" x="127.246094"/>
       <use xlink:href="#DejaVuSans-35" x="190.869141"/>
      </g>
     </g>
    </g>
    <g id="text_10">
     <!-- ds -->
     <g transform="translate(377.406094 418.316562) scale(0.1 -0.1)">
      <defs>
       <path id="DejaVuSans-64" d="M 2906 2969 
L 2906 4863 
L 3481 4863 
L 3481 0 
L 2906 0 
L 2906 525 
Q 2725 213 2448 61 
Q 2172 -91 1784 -91 
Q 1150 -91 751 415 
Q 353 922 353 1747 
Q 353 2572 751 3078 
Q 1150 3584 1784 3584 
Q 2172 3584 2448 3432 
Q 2725 3281 2906 2969 
z
M 947 1747 
Q 947 1113 1208 752 
Q 1469 391 1925 391 
Q 2381 391 2643 752 
Q 2906 1113 2906 1747 
Q 2906 2381 2643 2742 
Q 2381 3103 1925 3103 
Q 1469 3103 1208 2742 
Q 947 2381 947 1747 
z
" transform="scale(0.015625)"/>
       <path id="DejaVuSans-73" d="M 2834 3397 
L 2834 2853 
Q 2591 2978 2328 3040 
Q 2066 3103 1784 3103 
Q 1356 3103 1142 2972 
Q 928 2841 928 2578 
Q 928 2378 1081 2264 
Q 1234 2150 1697 2047 
L 1894 2003 
Q 2506 1872 2764 1633 
Q 3022 1394 3022 966 
Q 3022 478 2636 193 
Q 2250 -91 1575 -91 
Q 1294 -91 989 -36 
Q 684 19 347 128 
L 347 722 
Q 666 556 975 473 
Q 1284 391 1588 391 
Q 1994 391 2212 530 
Q 2431 669 2431 922 
Q 2431 1156 2273 1281 
Q 2116 1406 1581 1522 
L 1381 1569 
Q 847 1681 609 1914 
Q 372 2147 372 2553 
Q 372 3047 722 3315 
Q 1072 3584 1716 3584 
Q 2034 3584 2315 3537 
Q 2597 3491 2834 3397 
z
" transform="scale(0.015625)"/>
      </defs>
      <use xlink:href="#DejaVuSans-64"/>
      <use xlink:href="#DejaVuSans-73" x="63.476562"/>
     </g>
    </g>
   </g>
   <g id="matplotlib.axis_2">
    <g id="ytick_1">
     <g id="line2d_19">
      <path d="M 57.17 381.820737 
L 709.2 381.820737 
" clip-path="url(#p27b0f120a7)" style="fill: none; stroke: #808080; stroke-opacity: 0.2; stroke-linecap: square"/>
     </g>
     <g id="line2d_20">
      <defs>
       <path id="mb334cd98cf" d="M 0 0 
L -3.5 0 
" style="stroke: #000000; stroke-width: 0.8"/>
      </defs>
      <g>
       <use xlink:href="#mb334cd98cf" x="57.17" y="381.820737" style="stroke: #000000; stroke-width: 0.8"/>
      </g>
     </g>
     <g id="text_11">
      <!-- 4000 -->
      <g transform="translate(24.72 385.619956) scale(0.1 -0.1)">
       <defs>
        <path id="DejaVuSans-34" d="M 2419 4116 
L 825 1625 
L 2419 1625 
L 2419 4116 
z
M 2253 4666 
L 3047 4666 
L 3047 1625 
L 3713 1625 
L 3713 1100 
L 3047 1100 
L 3047 0 
L 2419 0 
L 2419 1100 
L 313 1100 
L 313 1709 
L 2253 4666 
z
" transform="scale(0.015625)"/>
       </defs>
       <use xlink:href="#DejaVuSans-34"/>
       <use xlink:href="#DejaVuSans-30" x="63.623047"/>
       <use xlink:href="#DejaVuSans-30" x="127.246094"/>
       <use xlink:href="#DejaVuSans-30" x="190.869141"/>
      </g>
     </g>
    </g>
    <g id="ytick_2">
     <g id="line2d_21">
      <path d="M 57.17 310.335506 
L 709.2 310.335506 
" clip-path="url(#p27b0f120a7)" style="fill: none; stroke: #808080; stroke-opacity: 0.2; stroke-linecap: square"/>
     </g>
     <g id="line2d_22">
      <g>
       <use xlink:href="#mb334cd98cf" x="57.17" y="310.335506" style="stroke: #000000; stroke-width: 0.8"/>
      </g>
     </g>
     <g id="text_12">
      <!-- 4500 -->
      <g transform="translate(24.72 314.134725) scale(0.1 -0.1)">
       <use xlink:href="#DejaVuSans-34"/>
       <use xlink:href="#DejaVuSans-35" x="63.623047"/>
       <use xlink:href="#DejaVuSans-30" x="127.246094"/>
       <use xlink:href="#DejaVuSans-30" x="190.869141"/>
      </g>
     </g>
    </g>
    <g id="ytick_3">
     <g id="line2d_23">
      <path d="M 57.17 238.850276 
L 709.2 238.850276 
" clip-path="url(#p27b0f120a7)" style="fill: none; stroke: #808080; stroke-opacity: 0.2; stroke-linecap: square"/>
     </g>
     <g id="line2d_24">
      <g>
       <use xlink:href="#mb334cd98cf" x="57.17" y="238.850276" style="stroke: #000000; stroke-width: 0.8"/>
      </g>
     </g>
     <g id="text_13">
      <!-- 5000 -->
      <g transform="translate(24.72 242.649495) scale(0.1 -0.1)">
       <use xlink:href="#DejaVuSans-35"/>
       <use xlink:href="#DejaVuSans-30" x="63.623047"/>
       <use xlink:href="#DejaVuSans-30" x="127.246094"/>
       <use xlink:href="#DejaVuSans-30" x="190.869141"/>
      </g>
     </g>
    </g>
    <g id="ytick_4">
     <g id="line2d_25">
      <path d="M 57.17 167.365046 
L 709.2 167.365046 
" clip-path="url(#p27b0f120a7)" style="fill: none; stroke: #808080; stroke-opacity: 0.2; stroke-linecap: square"/>
     </g>
     <g id="line2d_26">
      <g>
       <use xlink:href="#mb334cd98cf" x="57.17" y="167.365046" style="stroke: #000000; stroke-width: 0.8"/>
      </g>
     </g>
     <g id="text_14">
      <!-- 5500 -->
      <g transform="translate(24.72 171.164265) scale(0.1 -0.1)">
       <use xlink:href="#DejaVuSans-35"/>
       <use xlink:href="#DejaVuSans-35" x="63.623047"/>
       <use xlink:href="#DejaVuSans-30" x="127.246094"/>
       <use xlink:href="#DejaVuSans-30" x="190.869141"/>
      </g>
     </g>
    </g>
    <g id="ytick_5">
     <g id="line2d_27">
      <path d="M 57.17 95.879816 
L 709.2 95.879816 
" clip-path="url(#p27b0f120a7)" style="fill: none; stroke: #808080; stroke-opacity: 0.2; stroke-linecap: square"/>
     </g>
     <g id="line2d_28">
      <g>
       <use xlink:href="#mb334cd98cf" x="57.17" y="95.879816" style="stroke: #000000; stroke-width: 0.8"/>
      </g>
     </g>
     <g id="text_15">
      <!-- 6000 -->
      <g transform="translate(24.72 99.679034) scale(0.1 -0.1)">
       <defs>
        <path id="DejaVuSans-36" d="M 2113 2584 
Q 1688 2584 1439 2293 
Q 1191 2003 1191 1497 
Q 1191 994 1439 701 
Q 1688 409 2113 409 
Q 2538 409 2786 701 
Q 3034 994 3034 1497 
Q 3034 2003 2786 2293 
Q 2538 2584 2113 2584 
z
M 3366 4563 
L 3366 3988 
Q 3128 4100 2886 4159 
Q 2644 4219 2406 4219 
Q 1781 4219 1451 3797 
Q 1122 3375 1075 2522 
Q 1259 2794 1537 2939 
Q 1816 3084 2150 3084 
Q 2853 3084 3261 2657 
Q 3669 2231 3669 1497 
Q 3669 778 3244 343 
Q 2819 -91 2113 -91 
Q 1303 -91 875 529 
Q 447 1150 447 2328 
Q 447 3434 972 4092 
Q 1497 4750 2381 4750 
Q 2619 4750 2861 4703 
Q 3103 4656 3366 4563 
z
" transform="scale(0.015625)"/>
       </defs>
       <use xlink:href="#DejaVuSans-36"/>
       <use xlink:href="#DejaVuSans-30" x="63.623047"/>
       <use xlink:href="#DejaVuSans-30" x="127.246094"/>
       <use xlink:href="#DejaVuSans-30" x="190.869141"/>
      </g>
     </g>
    </g>
    <g id="ytick_6">
     <g id="line2d_29">
      <path d="M 57.17 24.394585 
L 709.2 24.394585 
" clip-path="url(#p27b0f120a7)" style="fill: none; stroke: #808080; stroke-opacity: 0.2; stroke-linecap: square"/>
     </g>
     <g id="line2d_30">
      <g>
       <use xlink:href="#mb334cd98cf" x="57.17" y="24.394585" style="stroke: #000000; stroke-width: 0.8"/>
      </g>
     </g>
     <g id="text_16">
      <!-- 6500 -->
      <g transform="translate(24.72 28.193804) scale(0.1 -0.1)">
       <use xlink:href="#DejaVuSans-36"/>
       <use xlink:href="#DejaVuSans-35" x="63.623047"/>
       <use xlink:href="#DejaVuSans-30" x="127.246094"/>
       <use xlink:href="#DejaVuSans-30" x="190.869141"/>
      </g>
     </g>
    </g>
    <g id="text_17">
     <!-- y -->
     <g transform="translate(18.640313 203.379375) rotate(-90) scale(0.1 -0.1)">
      <defs>
       <path id="DejaVuSans-79" d="M 2059 -325 
Q 1816 -950 1584 -1140 
Q 1353 -1331 966 -1331 
L 506 -1331 
L 506 -850 
L 844 -850 
Q 1081 -850 1212 -737 
Q 1344 -625 1503 -206 
L 1606 56 
L 191 3500 
L 800 3500 
L 1894 763 
L 2988 3500 
L 3597 3500 
L 2059 -325 
z
" transform="scale(0.015625)"/>
      </defs>
      <use xlink:href="#DejaVuSans-79"/>
     </g>
    </g>
   </g>
   <g id="line2d_31">
    <defs>
     <path id="m41e71f4e9b" d="M 0 1.5 
C 0.397805 1.5 0.77937 1.341951 1.06066 1.06066 
C 1.341951 0.77937 1.5 0.397805 1.5 0 
C 1.5 -0.397805 1.341951 -0.77937 1.06066 -1.06066 
C 0.77937 -1.341951 0.397805 -1.5 0 -1.5 
C -0.397805 -1.5 -0.77937 -1.341951 -1.06066 -1.06066 
C -1.341951 -0.77937 -1.5 -0.397805 -1.5 0 
C -1.5 0.397805 -1.341951 0.77937 -1.06066 1.06066 
C -0.77937 1.341951 -0.397805 1.5 0 1.5 
z
" style="stroke: #000000"/>
    </defs>
    <g clip-path="url(#p27b0f120a7)">
     <use xlink:href="#m41e71f4e9b" x="86.807727" y="185.951206" style="stroke: #000000"/>
     <use xlink:href="#m41e71f4e9b" x="103.261861" y="208.96945" style="stroke: #000000"/>
     <use xlink:href="#m41e71f4e9b" x="119.761075" y="248.858208" style="stroke: #000000"/>
     <use xlink:href="#m41e71f4e9b" x="136.215209" y="301.471338" style="stroke: #000000"/>
     <use xlink:href="#m41e71f4e9b" x="152.669343" y="366.951809" style="stroke: #000000"/>
     <use xlink:href="#m41e71f4e9b" x="169.123478" y="348.222679" style="stroke: #000000"/>
     <use xlink:href="#m41e71f4e9b" x="185.622691" y="351.65397" style="stroke: #000000"/>
     <use xlink:href="#m41e71f4e9b" x="202.076826" y="333.06781" style="stroke: #000000"/>
     <use xlink:href="#m41e71f4e9b" x="218.53096" y="270.017837" style="stroke: #000000"/>
     <use xlink:href="#m41e71f4e9b" x="234.985094" y="291.892317" style="stroke: #000000"/>
     <use xlink:href="#m41e71f4e9b" x="251.484308" y="315.911354" style="stroke: #000000"/>
     <use xlink:href="#m41e71f4e9b" x="267.938442" y="274.449921" style="stroke: #000000"/>
     <use xlink:href="#m41e71f4e9b" x="284.392576" y="335.784248" style="stroke: #000000"/>
     <use xlink:href="#m41e71f4e9b" x="300.84671" y="317.341059" style="stroke: #000000"/>
     <use xlink:href="#m41e71f4e9b" x="317.345924" y="338.357717" style="stroke: #000000"/>
     <use xlink:href="#m41e71f4e9b" x="333.800058" y="302.329161" style="stroke: #000000"/>
     <use xlink:href="#m41e71f4e9b" x="350.254192" y="305.18857" style="stroke: #000000"/>
     <use xlink:href="#m41e71f4e9b" x="366.708326" y="319.342645" style="stroke: #000000"/>
     <use xlink:href="#m41e71f4e9b" x="383.20754" y="341.360096" style="stroke: #000000"/>
     <use xlink:href="#m41e71f4e9b" x="399.661674" y="274.30695" style="stroke: #000000"/>
     <use xlink:href="#m41e71f4e9b" x="416.115808" y="305.617481" style="stroke: #000000"/>
     <use xlink:href="#m41e71f4e9b" x="432.569942" y="238.707306" style="stroke: #000000"/>
     <use xlink:href="#m41e71f4e9b" x="449.069156" y="237.277601" style="stroke: #000000"/>
     <use xlink:href="#m41e71f4e9b" x="465.52329" y="209.255391" style="stroke: #000000"/>
     <use xlink:href="#m41e71f4e9b" x="481.977424" y="157.500084" style="stroke: #000000"/>
     <use xlink:href="#m41e71f4e9b" x="498.431558" y="172.226042" style="stroke: #000000"/>
     <use xlink:href="#m41e71f4e9b" x="514.930772" y="173.655746" style="stroke: #000000"/>
     <use xlink:href="#m41e71f4e9b" x="531.384906" y="161.932168" style="stroke: #000000"/>
     <use xlink:href="#m41e71f4e9b" x="547.83904" y="136.054515" style="stroke: #000000"/>
     <use xlink:href="#m41e71f4e9b" x="564.293174" y="149.493738" style="stroke: #000000"/>
     <use xlink:href="#m41e71f4e9b" x="580.792388" y="183.234767" style="stroke: #000000"/>
     <use xlink:href="#m41e71f4e9b" x="597.246522" y="131.193519" style="stroke: #000000"/>
    </g>
   </g>
   <g id="line2d_32">
    <path d="M 86.807727 280.785157 
L 103.261861 281.925611 
L 119.761075 305.245698 
L 136.215209 292.682039 
L 152.669343 286.966181 
L 169.123478 288.104087 
L 185.622691 311.420335 
L 202.076826 298.840019 
L 218.53096 293.101776 
L 234.985094 294.20513 
L 251.484308 317.485058 
L 267.938442 304.875246 
L 284.392576 299.108739 
L 300.84671 300.188746 
L 317.345924 323.438039 
L 333.800058 310.782592 
L 350.254192 292.768203 
L 366.708326 281.579228 
L 383.20754 292.521069 
L 399.661674 267.596314 
L 416.115808 249.517618 
L 432.569942 238.28902 
L 449.069156 249.206166 
L 465.52329 224.273455 
L 481.977424 206.188545 
L 498.431558 194.959947 
L 514.930772 205.877093 
L 531.384906 180.944382 
L 547.83904 162.859472 
L 564.293174 151.630874 
L 580.792388 162.54802 
L 597.246522 137.615308 
L 613.700657 119.530398 
L 630.154791 108.3018 
L 646.654005 119.218946 
L 663.108139 94.286235 
L 679.562273 76.201325 
" clip-path="url(#p27b0f120a7)" style="fill: none; stroke: #0072b2; stroke-width: 1.5; stroke-linecap: square"/>
   </g>
   <g id="patch_3">
    <path d="M 57.17 390.04 
L 57.17 10.8 
" style="fill: none; stroke: #000000; stroke-width: 0.8; stroke-linejoin: miter; stroke-linecap: square"/>
   </g>
   <g id="patch_4">
    <path d="M 709.2 390.04 
L 709.2 10.8 
" style="fill: none; stroke: #000000; stroke-width: 0.8; stroke-linejoin: miter; stroke-linecap: square"/>
   </g>
   <g id="patch_5">
    <path d="M 57.17 390.04 
L 709.2 390.04 
" style="fill: none; stroke: #000000; stroke-width: 0.8; stroke-linejoin: miter; stroke-linecap: square"/>
   </g>
   <g id="patch_6">
    <path d="M 57.17 10.8 
L 709.2 10.8 
" style="fill: none; stroke: #000000; stroke-width: 0.8; stroke-linejoin: miter; stroke-linecap: square"/>
   </g>
  </g>
 </g>
 <defs>
  <clipPath id="p27b0f120a7">
   <rect x="57.17" y="10.8" width="652.03" height="379.24"/>
  </clipPath>
 </defs>
</svg>
